# xmcd
#
# Track frame offsets: 
#        150
#        13107
#        28946
#        53927
#        68994
#        87472
#        99605
#        115339
#        142308
#        160050
#        164771
#        175739
#        188149
#        198312
#        214109
#        223968
#        244485
#        257240
#        273689
#        290360
#        307148
#
# Disc length: 4344 seconds
#
# Revision: 0
# Processed by: cddbd v1.5.2PL0 Copyright (c) Steve Scherf et al.
# Submitted via: ExactAudioCopy v0.99pb3
#
DISCID=5b10f615
DTITLE=Various Artist - Farmageddon Records Music Festival (2014) [PromoCDR]
DYEAR=2014
DGENRE=Alt.Country
TTITLE0=Carrie Nation and the Speakeasy/Promised Land
TTITLE1=Joseph Huber/Tongues of Fire
TTITLE2=Jimmy Swope/Dust Train
TTITLE3=Calamity Cubes!, the/Ivan
TTITLE4=Pine Box Boys, the/Tardy Hearse
TTITLE5=Filthy Still/Everyone's Sinnin' But Me
TTITLE6=Fishgutzzz and His Ignorant Band/Me and the Dog
TTITLE7=Old Kery Mckee/Letter to a Sick
TTITLE8=Derek W. Dunn/Pressure
TTITLE9=Yankee Cockfight/Bristol Strangler
TTITLE10=Call Me Bronco/Can't Get You Off My Mind
TTITLE11=Lou Shields/Down That Road
TTITLE12=Soda Gardocki/Tall Buildings
TTITLE13=Devil's Cut, the/Bridge Diving
TTITLE14=Black Eyed Vermillion/One Foot in the Grave
TTITLE15=The Goddamn Gallows/Ol' Dusty Trail
TTITLE16=Jayke Orvis and the Broken Band/Clankertown
TTITLE17=Billy Cook/Left to Remember
TTITLE18=Cutthroat Shamrock/Cod Liver Oil [trad.]
TTITLE19=Hangdog Hearts, the/Oil in the Pan
TTITLE20=Hook N Krooks/Drinkin' Song
EXTD=
EXTT0=
EXTT1=
EXTT2=
EXTT3=
EXTT4=
EXTT5=
EXTT6=
EXTT7=
EXTT8=
EXTT9=
EXTT10=
EXTT11=
EXTT12=
EXTT13=
EXTT14=
EXTT15=
EXTT16=
EXTT17=
EXTT18=
EXTT19=
EXTT20=
PLAYORDER=
